<?xml version="1.0" encoding="utf-8"?>
<!-- Generator: Adobe Illustrator 26.1.0, SVG Export Plug-In . SVG Version: 6.00 Build 0)  -->
<svg version="1.1" id="Livello_1" xmlns="http://www.w3.org/2000/svg" xmlns:xlink="http://www.w3.org/1999/xlink" x="0px" y="0px"
	 viewBox="0 0 16 16" style="enable-background:new 0 0 16 16;" xml:space="preserve">
<style type="text/css">
	.st0{fill:#1D1D1B;}
</style>
<path class="st0" d="M11.3,0.6L9.8,2.1l4.1,4.1l1.5-1.5c0.8-0.8,0.8-2,0-2.8l-1.2-1.2C13.4-0.2,12.1-0.2,11.3,0.6L11.3,0.6z
	 M9.1,2.8l-7.3,7.3c-0.3,0.3-0.6,0.7-0.7,1.2L0,15c-0.1,0.3,0,0.5,0.2,0.7S0.7,16,1,16l3.8-1.1c0.4-0.1,0.8-0.4,1.2-0.7l7.3-7.3
	L9.1,2.8z"/>
</svg>
